# xmcd
# Copyright (C) 1995-1998 Ti Kan
#
# Track frame offsets:
#       150
#       18935
#       35322
#       48087
#       76850
#       93765
#       106782
#       109155
#       127915
#       139607
#       154857
#       172755
#       188980
#       208662
#       228184
#       247512
#       271630
#       292437
#       305885
#
# Disc length: 4142 seconds
#
# Revision: 0
# Processed by: cddbd v1.4PL0 Copyright (c) Steve Scherf et al.
# Submitted via: CD-Transfer v1.0
#
DISCID=e9102c13
DTITLE=The Wondertoys - Sing Sing
DYEAR=1997
DGENRE=
TTITLE0=Mr Robynson
TTITLE1=Stealing Slippers In Japan
TTITLE2=Courtney Love Song
TTITLE3=Rites Of Passage
TTITLE4=Everything
TTITLE5=My Maverick Moods
TTITLE6=Cut
TTITLE7=Forbidden Fruit
TTITLE8=Laura Jane's Fame
TTITLE9=Right For You Baby
TTITLE10=Bathsheba
TTITLE11=The Dance Collector
TTITLE12=Auf and Ab (Wie Immer)
TTITLE13=Rsvp
TTITLE14=Hideaway
TTITLE15=Evelyn Lyons
TTITLE16=Crystal Clear Maria
TTITLE17=Evelyn Lyons Revisited
TTITLE18=M M M
EXTD=
EXTT0=
EXTT1=
EXTT2=
EXTT3=
EXTT4=
EXTT5=
EXTT6=
EXTT7=
EXTT8=
EXTT9=
EXTT10=
EXTT11=
EXTT12=
EXTT13=
EXTT14=
EXTT15=
EXTT16=
EXTT17=
EXTT18=
PLAYORDER=
